<?xml version="1.0" standalone="no"?>
<!DOCTYPE svg PUBLIC "-//W3C//DTD SVG 20010904//EN"
 "http://www.w3.org/TR/2001/REC-SVG-20010904/DTD/svg10.dtd">
<svg version="1.0" xmlns="http://www.w3.org/2000/svg"
 width="30.000000pt" height="24.000000pt" viewBox="0 0 30.000000 24.000000"
 preserveAspectRatio="xMidYMid meet">

<g transform="translate(0.000000,24.000000) scale(0.100000,-0.100000)"
fill="#000000" stroke="none">
<path d="M22 217 c-17 -18 -22 -36 -22 -78 0 -74 24 -99 98 -99 39 0 52 -4 52
-15 0 -11 -18 -15 -77 -18 -43 -1 -9 -4 75 -5 l152 -2 0 120 0 120 -128 0
c-121 0 -130 -1 -150 -23z m235 -9 c33 -31 30 -76 -8 -124 -34 -43 -47 -54
-67 -54 -10 0 -10 5 -2 20 10 19 8 20 -50 20 -51 0 -65 4 -85 25 -32 31 -33
80 -3 112 19 21 31 23 107 23 73 0 88 -3 108 -22z"/>
</g>
</svg>
